<svg version="1.1" id="Layer_1" xmlns="http://www.w3.org/2000/svg" xmlns:xlink="http://www.w3.org/1999/xlink" x="0px" y="0px"
	 width="100%" viewBox="0 0 496 496" enable-background="new 0 0 496 496" xml:space="preserve">
<path fill="#000000" opacity="1.000000" stroke="none" 
	d="
M1.000000,188.399994 
	C5.768372,181.393524 6.530347,173.541733 7.646143,165.870850 
	C9.644404,152.133209 8.398328,138.274506 8.837282,124.476593 
	C9.345803,108.491966 10.321660,92.595337 17.652882,77.828453 
	C26.903482,59.195477 38.628643,42.835251 58.541603,34.519321 
	C87.850800,22.279388 114.662209,26.727262 138.599487,47.750744 
	C156.897552,63.821461 169.806915,84.007774 181.957077,104.748711 
	C184.182388,108.547478 187.022125,112.072060 188.355423,116.736229 
	C185.930283,117.130501 184.753143,115.567062 183.392746,114.550392 
	C176.154816,109.141159 171.512909,101.594742 166.713348,94.180702 
	C160.563065,84.680115 154.753815,74.949989 147.134979,66.473442 
	C129.350342,46.686646 106.675568,36.115299 80.991226,31.159624 
	C79.869461,30.943182 78.750832,30.528332 77.575783,31.096773 
	C51.617050,43.654675 31.277636,61.610176 21.275393,89.546143 
	C18.034822,98.596970 17.073151,107.913956 17.167311,117.491264 
	C17.338917,134.946518 18.012869,152.433670 14.351891,169.717834 
	C12.485770,178.528122 8.615393,185.959549 1.284745,191.823486 
	C1.000000,190.933334 1.000000,189.866653 1.000000,188.399994 
z"/>
<path fill="#000000" opacity="1.000000" stroke="none" 
	d="
M497.000000,168.583344 
	C494.942719,167.592194 492.855469,166.225800 490.836761,164.764725 
	C488.881042,163.349213 487.257446,161.563080 485.245911,159.920364 
	C488.310699,168.792999 491.375488,177.665649 494.603882,187.011932 
	C491.682068,187.144226 490.895813,185.291229 489.833069,184.049759 
	C481.566589,174.393158 477.428711,162.820190 475.046112,150.617813 
	C472.946533,139.864853 471.481079,128.987717 469.775299,118.159180 
	C469.680145,117.555252 469.947205,116.894272 470.202179,115.251434 
	C474.573883,119.589920 475.570404,124.917412 478.624115,130.095016 
	C478.020111,110.432709 475.142181,92.093147 467.989716,74.543365 
	C461.445190,58.485176 451.458893,45.302143 436.133118,36.660187 
	C432.716492,34.733616 429.070374,33.214043 424.523499,31.021852 
	C429.284119,29.468227 432.924225,30.555298 436.434967,31.333029 
	C447.949890,33.883907 456.390808,41.085464 463.253967,50.192005 
	C475.463074,66.391945 481.741547,84.898956 484.449982,104.899239 
	C486.433289,119.545013 484.839081,134.557617 489.206879,148.940491 
	C490.818420,154.247330 492.820801,159.312546 496.740967,163.789062 
	C497.000000,165.388885 497.000000,166.777786 497.000000,168.583344 
z"/>
<path fill="#000000" opacity="1.000000" stroke="none" 
	d="
M191.410812,264.580780 
	C192.775650,275.254089 194.101486,285.468781 198.701096,296.187805 
	C199.602936,293.442535 200.274094,291.581604 200.820648,289.684784 
	C201.372650,287.769012 201.893997,285.835327 202.266785,283.878662 
	C203.540878,277.190857 204.566147,270.449554 206.056641,263.811859 
	C206.699387,260.949493 205.484970,258.620850 205.097397,256.040527 
	C201.273010,230.579102 215.164886,200.781189 238.812531,191.010605 
	C240.453217,190.332703 242.097031,189.347137 245.120224,190.460648 
	C230.101578,202.090668 220.272537,216.702850 214.136932,235.071320 
	C218.750107,229.167526 221.733017,223.145462 227.616791,218.828720 
	C227.681732,220.132568 227.886887,220.693039 227.702164,221.053955 
	C219.076736,237.905029 216.824875,256.576660 212.394379,274.621277 
	C210.156662,283.735138 207.166245,292.550781 201.925461,300.398865 
	C199.544800,303.963898 201.735168,307.087433 202.124023,310.411072 
	C202.216110,311.198120 202.137680,312.005127 202.137680,312.670929 
	C200.538101,313.510773 200.034485,312.408661 199.564056,311.644165 
	C181.320053,281.995575 176.447220,251.049164 191.118149,218.490677 
	C195.765747,208.176483 203.672943,200.544128 213.469727,194.916382 
	C214.869308,194.112381 216.188995,192.968491 219.253433,193.439026 
	C198.633102,212.955200 190.454681,236.826065 191.410812,264.580780 
z"/>
<path fill="#000000" opacity="1.000000" stroke="none" 
	d="
M302.440857,132.499664 
	C313.514374,108.896576 324.982086,85.938866 342.858459,67.020325 
	C355.467682,53.676006 368.548157,40.808193 386.172821,34.005329 
	C393.991669,30.987375 401.976746,30.127192 410.081757,32.871284 
	C412.238708,33.601543 414.584595,34.095482 415.954498,36.131859 
	C415.893372,37.142868 415.177643,37.331470 414.551147,37.314644 
	C391.326935,36.690762 373.418518,47.928753 357.672913,63.366108 
	C340.869537,79.840500 328.360474,99.511101 317.202698,120.077827 
	C313.145630,127.556152 309.007324,134.974976 302.900360,141.035187 
	C301.419617,142.504562 300.189148,144.442963 297.394836,144.771103 
	C298.057312,140.240677 300.713989,136.748840 302.440857,132.499664 
z"/>
<path fill="#000000" opacity="1.000000" stroke="none" 
	d="
M335.453857,298.329102 
	C328.760315,315.632141 322.656830,332.692078 320.827148,350.947662 
	C320.043945,358.762054 319.993469,366.561157 320.818939,374.371948 
	C321.088379,376.921844 321.231598,379.485077 320.831940,382.132660 
	C315.647461,374.113434 313.223175,365.268646 312.805145,355.972534 
	C312.016479,338.433014 317.641022,322.210754 323.743317,306.136169 
	C329.820312,290.128265 336.866791,274.440460 340.120270,257.490845 
	C342.082916,247.265945 342.589294,237.018661 339.956116,226.794861 
	C339.634766,225.547226 339.605408,224.224411 339.252319,221.462738 
	C345.317596,227.095459 347.195251,233.217361 348.291382,239.675934 
	C350.419647,252.215820 347.323914,264.144226 343.580566,275.904236 
	C341.210175,283.351105 338.273010,290.617554 335.453857,298.329102 
z"/>
<path fill="#000000" opacity="1.000000" stroke="none" 
	d="
M69.742142,160.734222 
	C63.116550,179.301498 63.499321,197.965302 65.681984,216.799088 
	C66.790466,226.363892 67.500374,235.975967 68.313103,245.573242 
	C68.534599,248.188797 68.092278,251.062363 71.785004,251.004303 
	C71.179138,265.942596 68.384964,279.467682 54.562382,287.633698 
	C53.583965,287.041626 53.524975,286.380981 53.788963,285.750885 
	C59.564751,271.964905 61.584908,257.488495 60.533516,242.737885 
	C59.744331,231.665955 57.554646,220.701355 56.320190,209.651901 
	C54.406460,192.522385 55.801826,175.717285 62.816208,159.762253 
	C65.985512,152.553284 70.662117,146.373581 77.853783,142.204956 
	C75.705360,148.511826 71.978363,154.100372 69.742142,160.734222 
z"/>
<path fill="#000000" opacity="1.000000" stroke="none" 
	d="
M354.060547,197.895935 
	C347.115082,177.884476 335.325317,162.846222 314.625153,155.318939 
	C320.871338,152.708633 326.501892,154.231918 331.820709,156.352905 
	C344.592712,161.446045 351.653442,172.118469 357.410004,183.826416 
	C363.729797,196.679886 365.898560,210.634140 368.257538,224.590866 
	C370.800293,239.634949 374.029694,254.563034 376.969940,269.539703 
	C377.131714,270.363831 377.343445,271.163696 376.606750,271.958252 
	C374.233398,271.319519 373.587585,269.111084 372.542328,267.313660 
	C364.763855,253.938324 362.251770,238.976562 359.718567,224.055756 
	C358.244263,215.372025 356.594818,206.742310 354.060547,197.895935 
z"/>
<path fill="#000000" opacity="1.000000" stroke="none" 
	d="
M203.567993,417.436127 
	C202.336075,398.970306 194.498749,383.449341 185.341522,368.430603 
	C176.399857,353.765442 167.866943,338.917175 164.032211,321.916229 
	C163.678604,320.348541 163.411774,318.761261 163.121185,317.268005 
	C164.197388,316.789398 164.754883,317.130127 165.072876,317.736969 
	C175.276703,337.210175 188.396683,354.982269 198.288361,374.634003 
	C206.060425,390.074677 212.243332,405.976654 211.272125,423.712433 
	C210.701248,434.137390 207.469162,443.699219 201.078323,452.223236 
	C202.328262,440.759949 204.411606,429.428528 203.567993,417.436127 
z"/>
<path fill="#000000" opacity="1.000000" stroke="none" 
	d="
M378.388702,377.585083 
	C379.513275,364.236633 382.040344,351.519409 383.027405,338.597290 
	C384.074738,324.885742 384.887543,311.345764 377.532562,298.849487 
	C377.308777,298.469299 377.394073,297.907196 377.313293,297.251434 
	C380.607422,296.004913 381.858582,298.480408 383.147003,300.473022 
	C388.827423,309.257904 390.802521,319.129364 391.281860,329.382202 
	C391.867004,341.898529 390.171265,354.249878 388.328217,366.574890 
	C385.490082,385.554443 382.485260,404.514954 384.218536,423.882385 
	C374.428070,409.596252 376.826813,393.752075 378.388702,377.585083 
z"/>
<path fill="#000000" opacity="1.000000" stroke="none" 
	d="
M410.313049,307.598969 
	C402.104706,295.296722 398.926941,281.910187 398.683716,267.653473 
	C398.356506,248.473740 401.002777,229.589066 404.143005,210.744965 
	C405.115570,204.908676 405.969177,199.052582 407.067352,191.981689 
	C409.793640,196.896790 410.104309,201.006836 410.306091,205.079056 
	C410.892517,216.913376 409.076691,228.542923 407.586487,240.250168 
	C404.442474,264.949768 407.079559,288.953644 418.330811,311.571503 
	C418.911682,312.739166 419.736053,313.839630 419.369690,316.380798 
	C415.454163,314.106537 413.049011,310.928436 410.313049,307.598969 
z"/>
<path fill="#000000" opacity="1.000000" stroke="none" 
	d="
M259.696686,317.092285 
	C266.725281,319.757019 273.422607,321.481354 280.818939,317.774933 
	C280.772705,322.865448 277.727905,325.047180 274.460358,326.236725 
	C270.266357,327.763489 266.985809,330.170502 263.773254,333.165955 
	C258.698181,337.898010 252.248703,338.936310 245.563812,338.232513 
	C237.651688,337.399506 230.642883,334.262146 224.347198,328.956268 
	C236.990158,327.027069 249.777573,332.372192 263.363129,327.759766 
	C256.570557,324.834808 250.741119,322.201416 244.809738,319.822205 
	C241.828857,318.626465 238.999481,319.408081 236.328110,321.252167 
	C231.330612,324.701996 225.823090,327.120087 219.774414,327.864716 
	C212.581482,328.750214 206.659836,326.130463 201.244568,320.807281 
	C202.375336,320.227722 202.793381,319.817444 203.185837,319.840576 
	C217.624664,320.692780 231.661865,318.128143 245.643616,314.979004 
	C250.408188,313.905884 254.865723,315.540863 259.696686,317.092285 
z"/>
<path fill="#000000" opacity="1.000000" stroke="none" 
	d="
M355.349396,388.144287 
	C349.093811,409.042297 339.772095,428.459534 334.917877,449.393829 
	C332.290314,448.773590 332.874664,447.012329 332.699646,445.652222 
	C331.114197,433.330139 334.566467,421.877167 339.207092,410.772766 
	C345.656952,395.339233 350.126038,379.392914 352.432648,362.863037 
	C353.257812,356.949646 353.377991,350.933228 353.712097,344.957825 
	C353.896301,341.663757 353.935120,338.370819 355.570343,334.490326 
	C362.774811,352.789246 360.415466,370.269928 355.349396,388.144287 
z"/>
<path fill="#000000" opacity="1.000000" stroke="none" 
	d="
M235.634567,129.338226 
	C255.963089,132.496582 276.045959,131.638306 296.542023,131.615311 
	C290.560486,137.559967 275.289429,140.319565 249.239548,139.160065 
	C233.123734,138.442734 217.721802,133.254410 201.707977,128.626495 
	C202.506531,132.965454 205.494080,136.176178 204.835892,140.839264 
	C197.629120,136.642609 198.269424,126.294930 189.777557,123.667336 
	C205.589142,121.656052 220.298813,126.309036 235.634567,129.338226 
z"/>
<path fill="#000000" opacity="1.000000" stroke="none" 
	d="
M424.650452,103.185501 
	C423.907501,90.348938 419.670441,79.419128 411.276611,70.167656 
	C402.879242,60.912354 392.432617,55.945415 379.772797,55.167210 
	C384.688141,51.672169 389.936218,50.945881 395.349579,52.141190 
	C412.027802,55.823856 422.003754,67.179253 428.209961,82.180893 
	C435.502380,99.808113 432.577545,117.052757 425.000946,133.881531 
	C424.690399,134.571350 424.161346,135.162781 423.184296,136.620056 
	C421.512054,124.863823 424.846130,114.319298 424.650452,103.185501 
z"/>
<path fill="#000000" opacity="1.000000" stroke="none" 
	d="
M84.287834,278.879395 
	C88.379875,265.934631 86.515717,253.213806 85.205933,240.489929 
	C84.086060,229.610962 82.507011,218.749374 84.639870,207.783356 
	C86.088654,200.334457 89.801620,193.612747 95.444923,190.274429 
	C90.375679,201.341492 90.541893,212.245499 91.699669,223.121613 
	C92.981392,235.162247 95.073685,247.131821 94.301605,259.306458 
	C93.742332,268.125305 90.957222,276.031769 84.731239,282.556610 
	C82.918846,281.326111 83.922836,280.246674 84.287834,278.879395 
z"/>
<path fill="#000000" opacity="1.000000" stroke="none" 
	d="
M116.675247,317.308807 
	C116.464264,328.485901 113.348343,338.720154 110.430046,348.933197 
	C105.747612,365.320099 108.519775,381.536926 110.755150,397.811523 
	C111.067329,400.084259 111.784752,402.353424 110.534943,405.398193 
	C106.661171,399.982239 104.479691,394.363495 102.752449,388.554230 
	C98.856651,375.451416 99.498299,362.362488 102.588547,349.164307 
	C105.589279,336.348389 110.413490,324.228302 115.355072,311.861053 
	C116.866768,313.563721 116.263206,315.355713 116.675247,317.308807 
z"/>
<path fill="#000000" opacity="1.000000" stroke="none" 
	d="
M184.828094,402.267426 
	C192.648102,417.573059 198.737183,432.953674 197.329254,450.271729 
	C196.388245,461.846680 192.042664,472.172638 185.732773,481.766296 
	C185.513870,482.099182 184.897690,482.170746 183.573532,482.764771 
	C187.214020,467.471863 189.945251,452.708069 188.692947,437.498077 
	C187.462585,422.554657 180.398697,408.923096 178.422821,392.800934 
	C182.154419,395.896851 183.036896,399.165283 184.828094,402.267426 
z"/>
<path fill="#000000" opacity="1.000000" stroke="none" 
	d="
M90.700729,295.709534 
	C97.309738,285.850769 103.169922,275.999176 106.094543,264.734894 
	C108.911430,253.885544 109.085350,243.096817 104.877106,232.465622 
	C104.374367,231.195587 103.130264,229.918503 104.174278,228.028671 
	C107.716614,229.082321 109.235001,232.004288 110.552483,234.967041 
	C119.778252,255.713898 115.283005,274.475098 102.067940,291.864441 
	C97.224670,298.237518 91.269096,303.338654 82.910416,307.695190 
	C84.976631,302.344482 88.257263,299.505219 90.700729,295.709534 
z"/>
<path fill="#000000" opacity="1.000000" stroke="none" 
	d="
M470.570770,201.318604 
	C458.209747,179.434021 458.889557,156.909164 465.469208,132.565674 
	C468.295502,139.152161 467.584198,144.993393 467.978790,150.551315 
	C468.613007,159.484787 468.249268,168.463074 470.022247,177.344421 
	C472.400940,189.259979 477.913666,199.900528 482.935974,210.759857 
	C483.884888,212.811615 484.805450,214.876465 485.059052,217.397827 
	C478.872498,213.343201 474.561218,207.723770 470.570770,201.318604 
z"/>
<path fill="#000000" opacity="1.000000" stroke="none" 
	d="
M23.109333,147.297302 
	C24.735748,144.013229 26.441441,141.240311 29.264067,138.980850 
	C28.623304,143.460251 27.433826,147.755508 27.134010,152.247238 
	C26.105843,167.650940 24.340483,182.990021 19.153025,197.674332 
	C17.015831,203.724152 13.567585,208.999405 8.640821,213.190521 
	C7.332190,214.303741 6.166604,215.895844 3.628184,215.531448 
	C5.722572,211.439346 7.986992,207.649765 9.663089,203.615723 
	C13.909123,193.396378 14.898521,182.418732 16.664080,171.628967 
	C18.004709,163.436050 19.405928,155.255493 23.109333,147.297302 
z"/>
<path fill="#000000" opacity="1.000000" stroke="none" 
	d="
M36.326996,169.208496 
	C34.055389,184.576630 33.120956,199.781357 27.176296,213.944260 
	C23.942022,221.649765 19.210014,228.171143 11.914541,232.539261 
	C10.577054,233.340073 9.322291,234.775742 7.403219,233.893082 
	C7.403219,233.533508 7.268569,233.105408 7.422397,232.929352 
	C19.336477,219.292984 22.729784,202.217682 26.689901,185.361084 
	C28.250872,178.716675 30.202852,172.178055 32.914455,165.905930 
	C33.726177,164.028351 34.112240,161.737534 36.604904,160.534241 
	C38.126850,163.451996 36.042618,166.106003 36.326996,169.208496 
z"/>
<path fill="#000000" opacity="1.000000" stroke="none" 
	d="
M286.795929,221.870605 
	C294.859436,213.121979 301.948242,211.606110 308.639923,217.001572 
	C311.571503,219.365295 313.148987,222.673035 314.796356,225.626724 
	C314.476349,227.581131 313.094116,226.431641 312.378967,226.922638 
	C313.961365,231.815475 310.657562,235.841949 304.334351,236.245865 
	C296.674683,236.735153 290.546356,232.987946 285.147064,228.158630 
	C282.750458,226.015030 285.775391,224.108704 286.795929,221.870605 
z"/>
<path fill="#000000" opacity="1.000000" stroke="none" 
	d="
M382.129517,145.083099 
	C388.758301,161.495117 389.565430,177.984573 386.635315,196.144104 
	C384.072266,192.848038 384.133209,190.162903 383.669434,187.720032 
	C381.260803,175.033813 379.966705,162.115646 375.625488,149.837738 
	C372.333435,140.527023 367.431000,132.419449 358.831085,127.010719 
	C358.339813,126.701744 358.039307,126.089432 357.549988,125.497253 
	C365.987640,123.720436 375.581238,131.395599 382.129517,145.083099 
z"/>
<path fill="#000000" opacity="1.000000" stroke="none" 
	d="
M296.067291,373.076813 
	C302.315948,365.105927 306.119507,356.359680 308.393066,345.441742 
	C311.811340,353.371490 310.301239,359.846191 308.293976,366.077606 
	C303.518799,380.901978 292.557617,390.891022 280.655365,399.949951 
	C276.343689,403.231628 272.111969,406.755249 266.580231,408.488220 
	C274.733490,395.428284 286.687439,385.535645 296.067291,373.076813 
z"/>
<path fill="#000000" opacity="1.000000" stroke="none" 
	d="
M142.942642,190.086945 
	C137.548889,199.399689 135.934128,210.145370 131.920441,221.114655 
	C126.140526,195.009445 141.273331,162.382385 166.504211,156.401001 
	C158.667023,163.763550 152.193390,170.762039 147.825012,180.150543 
	C145.268005,183.502899 144.606812,187.044998 142.942642,190.086945 
z"/>
<path fill="#000000" opacity="1.000000" stroke="none" 
	d="
M64.635483,48.773872 
	C72.912964,37.575897 85.617928,33.503017 93.250519,40.046238 
	C87.295906,40.959156 81.364029,41.054829 77.169266,46.403790 
	C80.323257,45.386383 83.036728,43.737923 86.946442,45.646385 
	C77.821930,50.447914 74.485840,59.645412 68.595726,67.416451 
	C66.893654,64.053787 67.913383,61.375305 68.686119,57.572033 
	C64.249931,64.228386 62.498535,70.961136 58.459480,76.642685 
	C57.507725,66.806107 59.331512,57.606617 64.635483,48.773872 
z"/>
<path fill="#000000" opacity="1.000000" stroke="none" 
	d="
M307.981873,436.942627 
	C308.746033,445.134552 311.269257,453.005798 313.149628,461.850464 
	C295.467285,445.104095 292.775757,402.242065 314.786530,389.939880 
	C305.669250,405.206726 306.759766,420.748291 307.853760,436.629089 
	C308.002686,436.986389 307.981873,436.942627 307.981873,436.942627 
z"/>
<path fill="#000000" opacity="1.000000" stroke="none" 
	d="
M147.304718,369.187805 
	C147.693878,381.124756 151.711731,391.689941 155.773544,402.231384 
	C159.059998,410.760559 162.501770,419.229980 165.783615,427.760895 
	C166.409851,429.388763 167.454269,431.036621 166.778351,432.989563 
	C149.310928,423.640533 135.676071,377.136810 146.563339,364.045776 
	C147.853760,365.471466 147.021133,367.205383 147.304718,369.187805 
z"/>
<path fill="#000000" opacity="1.000000" stroke="none" 
	d="
M453.517395,244.497375 
	C455.473145,247.751419 457.251495,250.682129 459.577606,254.515564 
	C454.300323,253.252579 451.648468,250.064331 448.996979,247.118988 
	C441.523163,238.816940 438.026215,228.587387 435.742706,217.932755 
	C433.867065,209.181351 432.408722,200.338333 430.895233,191.513657 
	C430.634186,189.991562 429.927124,188.349014 431.229492,185.967834 
	C434.892883,191.636002 437.291534,197.335785 439.361145,203.190308 
	C444.172119,216.799652 446.712189,231.183594 453.517395,244.497375 
z"/>
<path fill="#000000" opacity="1.000000" stroke="none" 
	d="
M329.385010,221.874649 
	C333.314636,232.856750 335.107025,249.294403 332.980042,255.685287 
	C330.625153,254.379288 330.337830,251.979874 329.672455,249.935379 
	C326.639221,240.615112 323.986816,231.160599 320.652863,221.951523 
	C317.515381,213.285233 312.236237,206.119995 303.011566,202.299683 
	C310.914703,198.077560 323.078796,207.327057 329.385010,221.874649 
z"/>
<path fill="#000000" opacity="1.000000" stroke="none" 
	d="
M162.638489,235.533829 
	C161.258606,241.026337 160.098816,246.163010 157.810028,251.216431 
	C153.233383,242.654205 157.331757,218.113617 165.022705,207.407318 
	C169.423035,201.281754 174.756058,196.479584 183.744278,195.697098 
	C171.809296,207.048889 166.939575,220.916702 162.638489,235.533829 
z"/>
<path fill="#000000" opacity="1.000000" stroke="none" 
	d="
M424.589661,248.324646 
	C415.703827,234.950150 413.976166,220.982269 419.180145,205.998535 
	C420.954224,227.016785 429.533112,245.233658 442.081879,262.211029 
	C437.107239,261.823242 431.619019,257.338989 424.589661,248.324646 
z"/>
<path fill="#000000" opacity="1.000000" stroke="none" 
	d="
M308.016754,437.006104 
	C307.317200,425.418152 310.240570,415.125671 319.198029,406.888336 
	C316.626129,415.977264 315.770599,425.166382 315.915710,434.523438 
	C316.064819,444.140717 319.914703,452.412506 324.410553,460.655151 
	C314.199036,456.281433 310.343170,447.582214 308.147400,437.273651 
	C307.981873,436.942627 308.002686,436.986389 308.016754,437.006104 
z"/>
<path fill="#000000" opacity="1.000000" stroke="none" 
	d="
M336.380798,98.377274 
	C351.532013,84.496223 377.024139,91.951546 381.741119,112.139511 
	C366.683319,100.800186 351.686737,91.316765 333.157867,104.660255 
	C332.962158,101.544479 335.003632,100.323669 336.380798,98.377274 
z"/>
<path fill="#000000" opacity="1.000000" stroke="none" 
	d="
M265.742859,292.159027 
	C260.885590,286.185852 254.911743,283.773438 247.238663,285.952454 
	C245.780060,286.366699 243.997574,285.591339 242.358276,285.427460 
	C236.843185,284.876099 231.392334,284.749969 226.326950,288.757935 
	C225.589508,284.426392 227.948135,282.351532 230.430450,280.552094 
	C238.338394,274.819550 252.534149,274.585876 260.632812,280.014771 
	C264.492981,282.602386 266.483185,286.257385 266.118835,291.488098 
	C265.977539,291.983826 265.742859,292.159027 265.742859,292.159027 
z"/>
<path fill="#000000" opacity="1.000000" stroke="none" 
	d="
M26.924715,249.862823 
	C25.802074,250.861099 24.944447,251.642853 24.030714,252.352341 
	C23.818727,252.516937 23.415453,252.435196 21.979115,252.579178 
	C29.007786,236.940247 34.147572,221.090149 43.055798,206.892227 
	C42.604469,222.980576 39.146301,237.905914 26.924715,249.862823 
z"/>
<path fill="#000000" opacity="1.000000" stroke="none" 
	d="
M134.765350,446.640442 
	C133.512482,448.779510 132.793411,450.873962 129.539993,452.707214 
	C132.393036,434.689911 137.437256,418.154419 141.332504,401.359802 
	C146.298325,417.376160 142.665741,432.143005 134.765350,446.640442 
z"/>
<path fill="#000000" opacity="1.000000" stroke="none" 
	d="
M121.537598,95.866554 
	C122.500824,89.613876 124.304840,84.121681 127.983124,79.445709 
	C132.094955,74.218590 137.817154,72.862999 144.071320,75.711182 
	C132.381897,79.528030 130.298721,89.780960 127.384071,99.447250 
	C125.796562,104.712135 125.299469,110.330460 122.205353,115.216461 
	C120.008240,108.929062 120.375839,102.629387 121.537598,95.866554 
z"/>
<path fill="#000000" opacity="1.000000" stroke="none" 
	d="
M448.226990,191.987701 
	C458.059326,206.470184 458.675232,222.672348 458.461334,239.089554 
	C449.412140,224.303680 449.808289,206.946991 445.159637,191.156296 
	C446.863098,189.891006 447.276917,191.236496 448.226990,191.987701 
z"/>
<path fill="#000000" opacity="1.000000" stroke="none" 
	d="
M368.680664,405.925659 
	C368.480865,398.668213 368.868713,391.947784 370.595490,385.277588 
	C377.048065,401.695221 377.040161,418.669983 375.002777,435.866821 
	C370.117249,426.604126 369.269897,416.536163 368.680664,405.925659 
z"/>
<path fill="#000000" opacity="1.000000" stroke="none" 
	d="
M133.909607,123.957367 
	C129.298447,126.412682 125.813690,130.153732 120.700150,131.671799 
	C125.769279,116.413490 148.174622,103.739006 162.828827,111.841064 
	C152.156754,113.832855 142.870255,118.072517 133.909607,123.957367 
z"/>
<path fill="#000000" opacity="1.000000" stroke="none" 
	d="
M172.551880,282.480286 
	C177.876450,291.839844 182.474182,301.111267 185.700470,311.695679 
	C173.790848,305.095795 160.043640,279.404907 166.496262,269.589355 
	C168.499847,273.871765 170.437698,278.013672 172.551880,282.480286 
z"/>
<path fill="#000000" opacity="1.000000" stroke="none" 
	d="
M98.821320,326.732025 
	C96.956909,329.381012 96.199745,332.386810 92.775070,335.187439 
	C92.912933,317.811768 102.861061,305.891144 109.885910,292.266510 
	C112.766380,298.671448 110.161919,306.490448 98.821320,326.732025 
z"/>
<path fill="#000000" opacity="1.000000" stroke="none" 
	d="
M261.845062,203.190002 
	C268.389923,188.965637 286.215424,181.370605 300.351074,186.555511 
	C299.797455,188.562851 297.887970,188.671616 296.430389,189.119385 
	C284.852478,192.676178 272.969727,195.528641 264.016113,204.607742 
	C262.632843,206.010391 261.630432,205.665939 261.845062,203.190002 
z"/>
<path fill="#000000" opacity="1.000000" stroke="none" 
	d="
M340.330811,433.709320 
	C342.434448,427.734222 343.215424,421.548035 348.386688,416.833038 
	C349.051666,421.838348 344.167694,456.525848 341.981018,462.119873 
	C337.628998,452.418243 338.443207,443.300598 340.330811,433.709320 
z"/>
<path fill="#000000" opacity="1.000000" stroke="none" 
	d="
M191.845932,142.623596 
	C190.467682,148.855209 192.045868,154.550858 192.742828,161.589645 
	C186.969406,156.988129 185.409744,151.639374 184.787704,145.965088 
	C184.446609,142.853500 184.674362,139.660614 184.848328,136.515594 
	C185.169037,130.718231 184.972000,125.033310 180.945084,119.377060 
	C189.189514,121.733910 192.900040,130.296204 191.845932,142.623596 
z"/>
<path fill="#000000" opacity="1.000000" stroke="none" 
	d="
M387.790161,81.270592 
	C391.059235,85.824532 393.978485,90.158226 395.277832,96.842064 
	C383.488739,88.335777 376.483124,74.663551 360.590759,75.033096 
	C366.464783,67.935814 378.283203,70.785889 387.790161,81.270592 
z"/>
<path fill="#000000" opacity="1.000000" stroke="none" 
	d="
M286.112701,400.115784 
	C290.576660,395.740784 293.560242,390.463928 298.347961,386.455963 
	C300.099213,396.544586 282.853180,417.608215 269.952820,420.634735 
	C274.736603,412.762695 280.170715,406.470490 286.112701,400.115784 
z"/>
<path fill="#000000" opacity="1.000000" stroke="none" 
	d="
M164.158463,409.663879 
	C163.616043,406.828644 163.411652,404.436188 164.632782,402.019592 
	C171.996872,415.054504 175.659042,428.785431 173.304062,444.324036 
	C169.281693,440.301636 166.592804,429.670410 164.158463,409.663879 
z"/>
<path fill="#000000" opacity="1.000000" stroke="none" 
	d="
M266.092651,291.893341 
	C268.017273,292.695709 267.546173,294.305756 267.335999,295.728821 
	C266.123230,303.940735 255.074753,312.288879 246.889359,311.204529 
	C246.620178,311.168854 246.388916,310.847107 245.833893,310.427155 
	C248.688400,306.834900 253.384567,305.856140 257.072418,302.437805 
	C255.635132,301.201324 254.090607,300.238342 253.056015,298.885406 
	C251.890442,297.361176 251.681717,295.453857 253.177200,293.871277 
	C254.786667,292.168060 256.613800,292.616577 258.009552,294.024414 
	C261.262268,297.305206 263.481323,295.850311 265.614319,292.424744 
	C265.742859,292.159027 265.977539,291.983826 266.092651,291.893341 
z"/>
<path fill="#000000" opacity="1.000000" stroke="none" 
	d="
M353.600616,82.027176 
	C367.108704,76.989517 380.321564,83.299194 383.377777,95.985878 
	C381.204376,96.531738 380.052612,94.745087 378.681824,93.787971 
	C371.502533,88.775230 364.063141,84.514793 354.994568,84.170303 
	C353.896362,84.128578 352.364807,84.184189 353.600616,82.027176 
z"/>
<path fill="#000000" opacity="1.000000" stroke="none" 
	d="
M399.354187,298.619873 
	C399.219208,300.318970 399.671997,301.700500 398.682159,302.831238 
	C392.612823,297.972961 389.905914,274.769806 394.718536,266.800598 
	C398.040710,277.199463 400.056915,287.486877 399.354187,298.619873 
z"/>
<path fill="#000000" opacity="1.000000" stroke="none" 
	d="
M234.097778,291.485962 
	C239.276291,295.395752 238.476410,298.532288 231.102264,302.813812 
	C234.769104,305.058411 238.197159,307.156799 241.838699,309.385895 
	C234.286758,313.948090 225.793823,307.050537 224.197220,295.330109 
	C227.150620,296.682587 229.632172,296.687012 230.896973,293.221710 
	C231.305298,292.102966 232.475861,291.553223 234.097778,291.485962 
z"/>
<path fill="#000000" opacity="1.000000" stroke="none" 
	d="
M121.990166,71.956421 
	C119.825317,76.606911 119.209328,81.555748 115.411537,86.112663 
	C113.723846,78.305885 114.729118,71.787514 118.696617,65.782272 
	C121.222725,61.958729 124.359200,58.950813 130.952484,59.462963 
	C126.978470,63.618858 123.445427,66.922691 121.990166,71.956421 
z"/>
<path fill="#000000" opacity="1.000000" stroke="none" 
	d="
M142.882507,190.483124 
	C144.606812,187.044998 145.268005,183.502899 147.732407,180.507172 
	C149.804794,178.742432 151.300339,176.593155 155.043396,175.902863 
	C151.208908,185.104233 148.195541,193.801132 142.716019,202.240234 
	C140.416107,197.758347 142.591019,194.345078 142.882507,190.483124 
z"/>
<path fill="#000000" opacity="1.000000" stroke="none" 
	d="
M285.606812,300.273315 
	C285.671539,304.130249 285.629150,307.562073 283.431091,310.625305 
	C278.135376,303.841553 278.013519,290.708282 283.622620,286.043823 
	C284.296204,290.891815 284.919128,295.375214 285.606812,300.273315 
z"/>
<path fill="#000000" opacity="1.000000" stroke="none" 
	d="
M273.019104,157.145706 
	C270.188019,158.141678 267.714996,158.889359 264.906158,158.860657 
	C268.400208,151.195343 282.026733,147.339722 290.580933,151.773071 
	C284.920135,154.690186 278.877380,155.010178 273.019104,157.145706 
z"/>
<path fill="#000000" opacity="1.000000" stroke="none" 
	d="
M303.494202,290.078735 
	C299.490509,296.827576 294.213257,301.878784 287.373566,306.500732 
	C287.211517,301.886017 289.634125,299.382294 291.729828,296.843933 
	C294.270172,293.767029 297.284790,291.167145 300.895966,289.355621 
	C301.869080,288.867432 302.969971,287.854492 303.494202,290.078735 
z"/>
<path fill="#000000" opacity="1.000000" stroke="none" 
	d="
M287.778778,198.769333 
	C285.935730,199.086868 284.476349,199.639969 283.049896,198.757385 
	C285.854889,193.776398 295.832733,191.236984 304.172241,193.643997 
	C299.192444,197.315598 293.673309,197.962936 287.778778,198.769333 
z"/>
<path fill="#000000" opacity="1.000000" stroke="none" 
	d="
M276.868103,162.339554 
	C273.878326,162.232193 271.241699,162.662903 268.647705,161.347977 
	C272.811432,157.279999 280.679535,156.914307 285.318207,160.474380 
	C282.748352,161.952332 280.082214,162.331909 276.868103,162.339554 
z"/>
<path fill="#000000" opacity="1.000000" stroke="none" 
	d="
M228.260361,268.701599 
	C230.216354,266.641602 230.882294,268.117981 230.867569,269.480469 
	C230.827682,273.173950 230.618500,276.913086 227.300354,279.969025 
	C225.074326,275.872131 226.892899,272.457520 228.260361,268.701599 
z"/>
<path fill="#000000" opacity="1.000000" stroke="none" 
	d="
M266.195007,276.160339 
	C265.415924,278.166962 264.544434,278.829529 263.615784,276.722504 
	C262.403656,273.972321 262.897125,271.401947 264.597382,268.602356 
	C267.028381,270.901886 266.115448,273.464874 266.195007,276.160339 
z"/>
</svg>